<?xml version="1.0" standalone="no"?>
<!DOCTYPE svg PUBLIC "-//W3C//DTD SVG 20010904//EN"
 "http://www.w3.org/TR/2001/REC-SVG-20010904/DTD/svg10.dtd">
<svg version="1.0" xmlns="http://www.w3.org/2000/svg"
 width="593.000000pt" height="593.000000pt" viewBox="0 0 593.000000 593.000000"
 preserveAspectRatio="xMidYMid meet">
<metadata>
Created by potrace 1.11, written by Peter Selinger 2001-2013
</metadata>
<g transform="translate(0.000000,593.000000) scale(0.100000,-0.100000)"
fill="#000000" stroke="none">
<path d="M2845 5868 c-133 -152 -245 -443 -245 -636 0 -74 6 -103 51 -241 98
-303 125 -446 100 -522 -18 -54 -109 -105 -163 -92 -48 12 -80 57 -98 138 -11
49 -10 61 25 361 14 117 14 139 0 210 -23 123 -81 272 -118 302 -12 10 -12 5
0 -40 30 -111 2 -278 -60 -360 -15 -19 -39 -65 -53 -104 -36 -91 -38 -210 -6
-298 12 -33 22 -79 22 -103 0 -37 -4 -45 -25 -55 -21 -9 -29 -9 -42 5 -14 14
-15 23 -4 70 10 46 9 66 -4 122 -29 125 -33 124 -77 -11 -53 -158 -50 -206 20
-389 80 -208 89 -283 39 -340 l-22 -26 -64 15 c-34 8 -66 18 -70 21 -7 7 -7
172 0 440 l4 180 -36 75 c-44 90 -86 150 -128 180 l-32 22 25 -36 c38 -57 67
-153 72 -246 5 -76 3 -90 -18 -130 -55 -108 -124 -18 -99 130 5 30 8 57 6 58
-2 2 -13 -14 -24 -37 -33 -63 -51 -157 -51 -261 0 -79 5 -105 26 -155 65 -155
87 -224 67 -212 -21 12 -266 -15 -353 -39 -52 -14 -123 -33 -158 -41 -35 -9
-66 -21 -69 -29 -2 -7 5 -23 17 -36 12 -13 34 -45 48 -73 25 -46 27 -59 27
-170 0 -107 -3 -125 -24 -165 -44 -83 -86 -129 -161 -179 -67 -45 -87 -53
-186 -72 l-112 -22 -5 -51 c-16 -132 50 -317 151 -426 l50 -55 44 41 c24 22
63 57 88 76 52 41 233 147 270 158 14 4 48 17 77 28 l51 21 -8 -30 c-8 -27 -7
-29 16 -25 42 8 64 17 64 27 0 5 -4 9 -9 9 -14 0 -19 35 -6 47 11 10 148 213
209 311 29 46 55 54 93 27 19 -13 25 -12 64 7 92 45 89 44 89 25 0 -8 20 -13
58 -15 73 -4 92 -10 86 -27 -4 -9 8 -14 45 -16 49 -4 63 3 54 28 -3 8 -15 10
-32 7 -18 -4 -39 1 -60 14 -35 21 -31 29 23 43 l31 8 -30 -1 c-57 -1 -62 1
-42 16 12 9 14 15 6 18 -9 3 -9 9 1 24 15 25 68 56 72 43 2 -6 17 -11 33 -12
21 -2 30 -8 29 -20 -1 -9 2 -17 7 -17 5 0 9 13 9 29 0 21 6 30 23 35 35 9 38
7 27 -13 -18 -34 -12 -77 13 -95 15 -12 18 -18 10 -22 -7 -3 -13 -13 -13 -21
0 -12 -8 -15 -41 -10 -39 5 -40 5 -23 -14 21 -23 99 -27 107 -5 3 8 1 16 -6
19 -8 2 -7 9 5 20 22 23 34 21 52 -5 9 -12 16 -17 16 -11 0 7 -4 15 -10 18 -5
3 -10 22 -10 41 0 30 -3 34 -19 29 -13 -4 -23 2 -35 20 -30 46 -13 46 71 4 97
-49 132 -48 187 4 47 45 55 81 28 129 l-20 38 26 0 c21 0 24 2 12 10 -8 5 -24
7 -36 4 -29 -7 -48 19 -40 56 5 28 4 30 -15 19 -25 -13 -35 -5 -44 38 -5 27
-2 37 20 59 l27 27 17 -27 c15 -22 20 -24 30 -13 9 12 8 16 -4 21 -24 9 -17
36 13 46 15 6 37 16 49 22 29 15 110 15 125 0 8 -8 7 -13 -6 -18 -14 -5 -15
-9 -5 -15 11 -6 8 -13 -9 -32 -12 -13 -20 -26 -16 -29 3 -3 -8 -9 -25 -13 -17
-4 -31 -11 -31 -16 0 -6 5 -7 10 -4 17 11 11 -26 -9 -52 -11 -13 -17 -31 -14
-40 3 -8 0 -19 -8 -24 -9 -6 -2 -7 21 -5 19 2 48 4 64 5 24 1 27 3 16 16 -7 9
-10 18 -6 22 3 4 -3 17 -15 29 l-22 23 42 17 c46 18 47 20 25 46 -14 14 -14
20 -4 33 7 8 16 13 20 10 5 -3 6 4 3 15 -5 20 11 26 62 21 15 -1 17 1 7 11 -6
6 -12 16 -12 21 0 10 93 -1 130 -15 24 -10 24 -11 5 -18 -15 -7 -9 -9 25 -9
25 -1 52 -5 60 -11 8 -5 19 -5 25 -1 16 13 54 -6 67 -33 6 -14 14 -23 19 -20
4 2 22 -14 40 -36 18 -23 48 -50 66 -61 18 -12 31 -24 28 -28 -6 -10 64 -73
75 -66 4 2 6 -6 6 -18 -1 -12 3 -28 8 -36 9 -12 7 -13 -11 -9 -13 4 -23 2 -23
-2 0 -5 10 -10 21 -12 12 -2 27 -12 33 -23 6 -11 19 -33 30 -48 23 -36 14 -45
-19 -19 -27 21 -55 20 -55 -3 0 -16 22 -25 61 -25 16 0 29 -4 29 -9 0 -16 -51
-51 -74 -51 -18 0 -24 -8 -32 -42 -8 -39 -12 -43 -39 -43 -29 0 -30 -2 -32
-45 -2 -25 -2 -66 -2 -92 0 -44 -2 -48 -24 -48 -12 0 -44 13 -69 29 l-46 29 5
-39 c4 -23 2 -39 -5 -39 -5 0 -20 -19 -32 -42 -12 -24 -30 -52 -41 -63 -17
-19 -17 -23 -4 -42 8 -12 16 -41 18 -64 1 -32 6 -43 20 -45 24 -3 23 -3 32
-41 4 -21 3 -33 -4 -33 -6 0 -11 5 -11 11 0 8 -5 8 -15 -1 -10 -9 -15 -9 -15
-1 0 6 -17 11 -41 11 l-41 0 16 25 c21 32 21 32 -14 27 -16 -2 -30 -9 -30 -14
0 -6 -12 -8 -27 -5 -25 5 -28 2 -30 -24 -2 -23 2 -29 17 -29 11 0 20 -4 20
-10 0 -5 7 -10 15 -10 8 0 15 5 15 12 0 9 3 8 13 -1 9 -11 9 -14 0 -18 -7 -2
-28 -15 -48 -29 -41 -28 -55 -30 -55 -9 0 8 -5 15 -11 15 -21 0 -69 -42 -69
-60 0 -11 -11 -22 -29 -28 -35 -13 -62 -51 -70 -100 -5 -29 -14 -41 -45 -58
-53 -30 -59 -43 -39 -92 20 -51 13 -78 -16 -60 -11 7 -21 24 -23 38 -3 21 -9
25 -43 28 -22 2 -73 1 -113 -3 -98 -9 -116 -26 -110 -101 5 -58 28 -94 60 -94
11 0 36 11 56 25 20 14 47 25 60 25 21 0 23 -4 17 -22 -21 -69 -21 -68 28 -68
43 0 45 -1 50 -36 7 -43 23 -64 48 -64 11 0 19 -4 19 -10 0 -25 -60 0 -107 45
-16 15 -51 26 -125 39 -157 28 -179 39 -298 154 -58 56 -109 102 -113 102 -5
0 14 -28 42 -61 29 -34 49 -64 46 -68 -4 -3 -17 6 -29 20 -12 14 -30 28 -39
32 -9 3 -16 11 -15 16 4 15 -70 99 -101 116 -16 8 -42 36 -59 63 -26 42 -30
60 -34 140 -4 85 -6 94 -33 122 -16 16 -23 30 -16 30 6 0 23 -12 37 -27 13
-14 27 -23 30 -20 3 3 -15 29 -42 57 l-47 51 -12 -28 c-17 -38 -51 -68 -107
-92 -60 -25 -177 -105 -247 -168 l-54 -49 18 -118 c15 -101 22 -124 51 -166
19 -27 34 -52 34 -55 0 -3 42 -67 93 -143 140 -206 147 -221 137 -268 -14 -56
-13 -60 19 -96 25 -29 29 -44 35 -121 9 -128 34 -271 56 -325 34 -84 94 -196
142 -262 74 -103 318 -330 355 -330 5 0 16 15 25 33 45 95 185 198 313 232 75
19 194 19 269 0 85 -22 184 -79 239 -136 49 -53 69 -58 132 -33 40 15 171 114
221 166 46 48 142 203 132 213 -2 3 -22 7 -44 11 -67 10 -294 91 -368 130
l-40 21 37 12 c20 7 37 16 37 19 0 4 -38 28 -84 53 -79 44 -85 45 -111 31 -21
-10 -33 -11 -49 -3 -13 7 -121 12 -286 13 -242 3 -268 5 -305 23 -43 22 -99
102 -89 128 9 23 36 30 177 42 87 7 99 3 75 -25 -7 -8 1 -3 18 13 36 32 63 34
87 6 27 -31 32 -15 7 21 -21 29 -21 33 -7 47 15 15 16 14 11 -4 -8 -28 13 -39
36 -18 17 15 21 15 49 0 18 -9 29 -20 25 -26 -4 -6 -14 -5 -29 5 -19 13 -25
13 -34 2 -8 -10 -6 -18 10 -32 22 -19 22 -19 11 2 -11 21 -10 21 26 9 36 -13
37 -12 44 12 7 24 11 68 9 89 -1 5 -17 17 -37 24 -25 10 -42 27 -56 55 -11 22
-31 52 -44 66 -29 30 -27 72 5 117 24 34 27 71 9 91 -11 11 -10 13 3 8 9 -3
20 3 27 13 6 10 25 25 41 33 29 15 31 14 31 -4 0 -19 1 -19 17 -4 12 13 26 15
52 11 20 -3 48 -6 63 -6 15 0 33 -6 40 -13 7 -8 28 -17 47 -20 54 -11 98 -44
111 -82 6 -19 17 -35 23 -35 29 -1 182 -70 185 -82 1 -8 -34 -61 -78 -117 -45
-57 -78 -107 -73 -111 14 -14 204 -76 287 -95 76 -16 79 -16 96 2 92 95 197
216 217 251 14 24 38 75 53 114 26 66 27 74 13 95 -16 24 -25 24 -109 8 -17
-4 -27 6 -54 59 -26 51 -31 71 -25 97 10 46 92 219 103 219 5 0 28 31 50 68
39 66 42 68 76 64 19 -2 51 1 71 8 89 29 30 -34 -89 -96 -87 -45 -113 -68
-121 -105 -15 -69 32 -133 109 -146 79 -13 428 121 534 206 19 14 45 33 58 42
48 32 138 116 201 189 121 140 199 301 247 510 8 35 13 66 11 68 -2 3 -44 6
-92 8 -216 8 -363 93 -454 264 -21 40 -24 58 -24 165 0 106 3 125 23 164 l24
45 -24 17 c-75 58 -228 109 -368 124 l-65 7 37 76 c48 98 63 203 48 325 -10
83 -25 144 -40 160 -4 5 -9 -29 -12 -75 -2 -47 -11 -93 -19 -106 -28 -45 -70
-37 -91 18 -19 51 -28 262 -17 425 10 165 28 271 58 362 22 65 8 57 -51 -30
-89 -132 -164 -339 -175 -482 -4 -65 2 -121 32 -300 62 -363 53 -463 -42 -493
-49 -16 -83 -4 -116 39 -34 47 -33 106 3 200 47 119 51 202 16 311 -31 99 -50
133 -42 74 13 -92 -28 -268 -75 -321 -34 -38 -53 -43 -86 -20 -54 38 -50 155
9 302 21 52 33 102 36 148 5 81 -20 257 -49 349 -25 74 -34 219 -21 301 5 33
9 61 7 63 -6 7 -96 -148 -139 -238 -63 -134 -97 -255 -103 -370 -4 -82 -1
-112 26 -223 17 -71 31 -141 31 -156 0 -42 -58 -150 -92 -171 -37 -23 -60 -16
-98 27 -41 46 -38 75 16 166 40 67 46 86 51 149 5 73 -14 182 -42 236 -9 20
-11 10 -7 -60 5 -107 -6 -148 -68 -232 -27 -38 -55 -86 -62 -107 -18 -61 -30
-46 -26 31 2 39 0 70 -3 70 -14 0 -31 -61 -39 -138 -10 -95 -26 -127 -67 -135
-57 -11 -56 1 6 173 97 265 171 560 171 678 0 123 -59 401 -95 447 -15 19 -15
18 -8 -10 5 -16 8 -75 8 -130 -1 -118 -25 -188 -70 -205 -111 -42 -186 205
-155 515 12 121 38 261 64 335 15 45 10 50 -19 18z m52 -998 c24 -6 53 -6 73
0 l33 9 -8 -57 c-4 -31 -9 -66 -10 -77 -1 -11 -5 -27 -8 -35 -3 -8 -13 -49
-22 -90 -10 -41 -21 -84 -25 -95 -5 -11 -25 -71 -45 -134 -20 -62 -55 -154
-77 -204 l-41 -91 29 -54 c16 -30 46 -69 67 -88 48 -44 105 -47 161 -9 20 14
40 25 43 25 3 0 30 -26 59 -57 51 -56 53 -57 54 -30 0 26 1 27 43 21 73 -10
120 -25 177 -55 48 -25 56 -27 71 -14 9 9 21 33 28 55 12 39 12 40 39 26 15
-7 38 -16 52 -19 22 -5 28 -16 42 -75 42 -180 168 -247 331 -177 13 5 17 2 17
-13 0 -21 43 -62 65 -62 15 0 25 -32 25 -82 0 -28 -8 -46 -29 -70 l-29 -32
-88 84 c-129 121 -311 249 -335 235 -5 -4 -9 -2 -9 4 0 30 -273 123 -432 147
-203 30 -464 6 -641 -59 l-69 -25 -51 24 c-29 13 -58 24 -65 24 -9 0 -8 8 4
32 22 43 30 153 15 225 -6 32 -24 93 -40 135 l-29 78 44 20 c26 11 51 31 62
49 9 17 19 31 22 31 3 -1 17 -18 31 -39 15 -21 44 -51 65 -67 34 -26 45 -29
113 -28 87 0 137 21 196 80 55 55 68 95 68 214 0 76 -18 173 -54 289 -25 82
-24 86 9 61 16 -12 47 -25 69 -30z m-517 -122 c-4 -49 -5 -50 -8 -14 -3 34 2
66 10 66 2 0 1 -24 -2 -52z m1120 -76 c18 -101 16 -215 -5 -262 -10 -22 -21
-40 -25 -40 -4 0 -15 37 -25 82 -19 90 -16 167 11 259 19 62 27 55 44 -39z
m-1570 -507 c0 -44 -14 -45 -29 -4 -14 41 -14 39 9 39 16 0 20 -7 20 -35z
m2179 -74 c12 -8 12 -14 0 -47 -22 -57 -39 -55 -39 5 0 52 9 61 39 42z m-443
-439 c-4 -3 -14 2 -24 12 -16 18 -16 18 6 6 13 -6 21 -14 18 -18z m-51 -282
c3 -5 1 -10 -4 -10 -6 0 -11 5 -11 10 0 6 2 10 4 10 3 0 8 -4 11 -10z m437
-88 l-6 -27 -7 25 c-12 43 -11 54 5 41 8 -7 11 -22 8 -39z m-308 -81 c4 -6 20
-5 42 1 31 8 38 7 54 -12 21 -25 18 -40 -10 -58 -29 -18 -67 -5 -82 28 -7 16
-16 26 -20 24 -4 -3 -8 2 -8 10 0 17 15 21 24 7z m438 -191 c31 -55 45 -135
27 -156 -10 -13 -10 -17 1 -24 26 -16 42 1 37 36 -6 37 6 54 19 26 4 -9 8 -19
8 -22 2 -6 83 -125 143 -209 l41 -59 -65 -65 c-40 -40 -70 -64 -79 -60 -10 4
-12 0 -8 -11 3 -9 1 -16 -4 -16 -6 0 -25 29 -44 65 -21 43 -37 64 -46 60 -8
-3 -18 -5 -23 -5 -5 0 -9 -5 -9 -12 0 -6 -7 -20 -16 -29 -9 -10 -18 -31 -20
-45 -5 -46 -35 -64 -82 -49 -21 7 -23 12 -20 74 l3 66 39 1 c22 0 41 5 43 11
3 7 -5 30 -16 52 -27 51 -26 53 8 72 20 12 30 27 35 52 4 20 13 43 22 51 11
12 12 24 5 55 -10 45 -6 53 10 19 8 -19 8 -18 3 7 -4 17 -7 41 -7 54 1 13 -2
20 -5 15 -4 -5 -17 -10 -29 -12 -37 -5 -59 56 -54 152 l1 29 28 -39 c16 -21
40 -59 54 -84z m-136 -59 c-3 -5 1 -12 10 -15 10 -4 14 -14 11 -26 -3 -11 -2
-20 2 -20 4 0 18 -19 31 -42 13 -24 27 -45 31 -48 12 -9 -2 -50 -16 -50 -8 0
-22 -3 -32 -7 -15 -6 -16 -5 -5 9 10 12 10 18 2 23 -7 5 -9 20 -6 40 5 24 2
36 -8 42 -18 10 -46 62 -46 86 0 9 7 17 16 17 8 0 13 -4 10 -9z m1 -120 c3
-31 -8 -50 -28 -51 -9 0 -18 62 -11 78 9 26 36 7 39 -27z m-1117 -692 c44 -24
13 -26 -36 -3 -19 9 -49 14 -69 12 -38 -4 -49 8 -12 15 32 6 77 -3 117 -24z
m135 -28 c15 -4 -27 -19 -52 -20 -14 -1 -21 4 -17 12 4 11 38 15 69 8z m60
-11 c-3 -5 -12 -10 -18 -10 -7 0 -6 4 3 10 19 12 23 12 15 0z m-192 -17 c-7
-2 -19 -2 -25 0 -7 3 -2 5 12 5 14 0 19 -2 13 -5z"/>
<path d="M4245 2588 c4 -13 12 -27 18 -33 7 -7 8 -4 3 8 -3 10 -6 25 -6 33 0
8 -5 14 -11 14 -6 0 -8 -9 -4 -22z"/>
<path d="M4320 2551 c0 -27 5 -53 10 -56 6 -4 10 13 10 44 0 27 -4 53 -10 56
-6 4 -10 -13 -10 -44z"/>
<path d="M765 3872 c-102 -35 -172 -79 -223 -143 -28 -34 -55 -81 -62 -104
-17 -61 -9 -211 14 -257 32 -65 114 -140 201 -183 79 -39 82 -40 190 -40 107
0 112 1 190 38 96 46 167 111 203 187 37 78 38 202 3 281 -80 177 -329 284
-516 221z"/>
<path d="M4930 3871 c-133 -43 -224 -117 -271 -220 -35 -79 -34 -203 3 -281
36 -76 107 -141 203 -187 78 -37 83 -38 190 -38 108 0 111 1 190 40 93 46 167
115 201 190 32 67 34 208 4 274 -47 103 -153 187 -284 226 -66 20 -168 18
-236 -4z"/>
<path d="M3021 3556 c2 -3 16 -6 29 -8 14 -2 36 -10 50 -17 l25 -14 -19 22
c-13 14 -31 21 -54 21 -20 0 -33 -2 -31 -4z"/>
<path d="M3575 3440 c3 -5 11 -10 16 -10 6 0 7 5 4 10 -3 6 -11 10 -16 10 -6
0 -7 -4 -4 -10z"/>
<path d="M2138 3154 c-34 -18 -36 -24 -5 -16 l22 5 -20 -23 -20 -23 25 8 c14
4 27 12 28 16 2 5 10 9 18 9 8 0 14 5 14 10 0 6 -5 10 -11 10 -5 0 -7 5 -4 10
9 15 -16 12 -47 -6z"/>
<path d="M2220 3015 c0 -7 -6 -15 -12 -18 -7 -2 -10 -7 -6 -11 7 -8 68 20 68
32 0 4 -11 8 -25 8 -15 1 -25 -4 -25 -11z"/>
<path d="M2564 2996 c-5 -13 -2 -23 11 -32 25 -19 29 -11 12 23 -14 25 -16 26
-23 9z"/>
<path d="M2613 2948 c1 -25 6 -38 15 -38 7 0 10 5 7 11 -4 6 -11 23 -15 37 -8
24 -9 23 -7 -10z"/>
<path d="M2651 2960 c0 -14 28 -72 29 -59 0 4 -7 22 -15 40 -8 19 -14 27 -14
19z"/>
<path d="M1727 2888 c-15 -23 -25 -43 -23 -45 2 -3 28 3 57 11 70 21 97 20
138 -5 18 -11 35 -18 38 -15 8 8 -18 47 -30 45 -7 -2 -33 8 -59 21 -45 22 -47
23 -73 6 -26 -17 -26 -17 -15 3 20 38 -5 22 -33 -21z"/>
<path d="M2480 2787 c0 -7 11 -23 25 -35 29 -25 31 -22 10 18 -16 31 -35 40
-35 17z"/>
<path d="M2821 2784 c0 -11 3 -14 6 -6 3 7 2 16 -1 19 -3 4 -6 -2 -5 -13z"/>
<path d="M2657 2663 c-20 -14 -36 -27 -35 -28 2 -1 31 0 66 3 61 4 84 22 45
36 -10 3 -22 8 -28 10 -5 3 -27 -7 -48 -21z"/>
<path d="M2716 2612 c-13 -21 -18 -92 -7 -92 6 0 11 14 11 31 0 17 5 39 10 50
11 19 -3 29 -14 11z"/>
<path d="M2776 2595 c20 -30 19 -30 43 -6 24 24 18 31 -26 31 -33 0 -33 0 -17
-25z"/>
<path d="M2805 2530 c-3 -6 1 -7 9 -4 18 7 21 14 7 14 -6 0 -13 -4 -16 -10z"/>
<path d="M2825 1460 c-3 -6 1 -7 9 -4 18 7 21 14 7 14 -6 0 -13 -4 -16 -10z"/>
<path d="M3829 1413 c-13 -16 -12 -17 4 -4 16 13 21 21 13 21 -2 0 -10 -8 -17
-17z"/>
<path d="M2925 733 c-66 -9 -152 -36 -191 -58 -57 -33 -151 -137 -164 -183
-21 -68 -23 -172 -6 -233 20 -67 53 -114 121 -170 97 -80 111 -84 285 -84 153
0 156 0 205 29 66 38 134 98 166 146 48 72 61 204 29 312 -13 46 -107 149
-164 183 -66 38 -211 68 -281 58z"/>
</g>
</svg>
